<svg data-v-fde0c5aa="" xmlns="http://www.w3.org/2000/svg" viewBox="0 0 300 300" class="iconAbove"><!----><defs data-v-fde0c5aa=""><!----></defs><rect data-v-fde0c5aa="" fill="#F3E6FC" x="0" y="0" width="300px" height="300px" class="logo-background-square"></rect><defs data-v-fde0c5aa=""><!----></defs><g data-v-fde0c5aa="" id="ce7ed2f9-a179-46bb-a50f-1babd7a23c6d" fill="#382345" transform="matrix(3.2965638512199438,0,0,3.2965638512199438,16.274882863840705,165.98871655924864)"><path d="M7.01 11.13C7.01 9.62 6.22 8.86 5.33 8.60C6.13 8.34 6.68 7.63 6.68 6.34L6.68 6.09C6.66 3.93 5.43 3.51 3.60 3.51L1.13 3.51L1.13 14.18L3.84 14.18C6.01 14.18 7.01 13.45 7.01 11.45ZM6.29 11.42C6.29 12.89 5.71 13.54 3.95 13.54L1.86 13.54L1.86 9.00L3.68 9.00C5.39 9.00 6.29 9.48 6.29 11.24ZM1.86 4.16L3.56 4.16C5.03 4.16 5.96 4.38 5.96 6.20L5.96 6.33C5.96 7.71 5.42 8.36 3.82 8.36L1.86 8.36ZM8.81 5.98L8.81 14.18L9.49 14.18L9.49 8.67C9.49 7.29 10.35 6.57 11.49 6.57C11.68 6.57 11.82 6.58 11.94 6.59L11.94 5.88C11.84 5.87 11.68 5.85 11.54 5.85C10.51 5.85 9.81 6.41 9.49 6.97L9.42 5.98ZM18.12 14.18L18.12 8.43C18.12 6.55 17.25 5.81 15.68 5.81C13.93 5.81 13.17 6.65 13.17 8.37L13.80 8.37C13.80 6.87 14.50 6.43 15.67 6.43C16.91 6.43 17.44 7.03 17.44 8.43L17.44 9.80C17.01 9.73 16.37 9.67 15.96 9.67C13.83 9.67 12.91 10.49 12.91 12.07C12.91 13.64 13.83 14.35 15.19 14.35C16.20 14.35 17.02 13.93 17.46 13.16L17.49 14.18ZM17.44 11.56C17.44 13.03 16.46 13.75 15.32 13.75C14.17 13.75 13.62 13.15 13.62 12.04C13.62 10.86 14.22 10.26 15.92 10.26C16.31 10.26 17.00 10.32 17.44 10.39ZM24.42 11.76L24.42 11.84C24.42 12.96 24.00 13.73 22.54 13.73C21.04 13.73 20.64 12.94 20.64 11.23L20.64 8.88C20.64 7.11 21.11 6.44 22.57 6.44C23.98 6.44 24.37 7.14 24.37 8.25L24.37 8.33L25.05 8.33L25.05 8.25C25.05 6.66 24.37 5.81 22.58 5.81C20.82 5.81 19.94 6.59 19.94 8.88L19.94 11.26C19.94 13.54 20.75 14.35 22.53 14.35C24.36 14.35 25.07 13.48 25.07 11.84L25.07 11.76ZM31.95 14.18L31.95 5.98L31.26 5.98L31.26 11.69C31.26 13.02 30.48 13.73 29.34 13.73C27.87 13.73 27.48 12.99 27.48 11.38L27.48 5.98L26.80 5.98L26.80 11.42C26.80 13.29 27.27 14.35 29.16 14.35C30.13 14.35 30.84 14 31.28 13.33L31.33 14.18ZM38.49 4.16L42.78 4.16L42.78 3.51L37.76 3.51L37.76 14.18L42.92 14.18L42.92 13.54L38.49 13.54L38.49 8.97L42.29 8.97L42.29 8.33L38.49 8.33ZM44.80 5.98L44.80 14.18L45.49 14.18L45.49 8.67C45.49 7.29 46.34 6.57 47.49 6.57C47.67 6.57 47.81 6.58 47.94 6.59L47.94 5.88C47.84 5.87 47.67 5.85 47.53 5.85C46.51 5.85 45.81 6.41 45.49 6.97L45.42 5.98ZM49.34 5.98L49.34 14.18L50.02 14.18L50.02 8.67C50.02 7.29 50.88 6.57 52.02 6.57C52.21 6.57 52.35 6.58 52.47 6.59L52.47 5.88C52.37 5.87 52.21 5.85 52.07 5.85C51.04 5.85 50.34 6.41 50.02 6.97L49.95 5.98ZM58.65 14.18L58.65 8.43C58.65 6.55 57.78 5.81 56.21 5.81C54.46 5.81 53.70 6.65 53.70 8.37L54.33 8.37C54.33 6.87 55.03 6.43 56.20 6.43C57.44 6.43 57.97 7.03 57.97 8.43L57.97 9.80C57.54 9.73 56.90 9.67 56.49 9.67C54.36 9.67 53.44 10.49 53.44 12.07C53.44 13.64 54.36 14.35 55.72 14.35C56.73 14.35 57.55 13.93 57.99 13.16L58.02 14.18ZM57.97 11.56C57.97 13.03 56.99 13.75 55.85 13.75C54.70 13.75 54.15 13.15 54.15 12.04C54.15 10.86 54.75 10.26 56.45 10.26C56.84 10.26 57.53 10.32 57.97 10.39ZM60.73 5.98L60.73 14.18L61.42 14.18L61.42 8.37C61.42 7.11 62.23 6.44 63.36 6.44C64.83 6.44 65.25 7.17 65.25 8.79L65.25 14.18L65.94 14.18L65.94 8.75C65.94 6.89 65.42 5.81 63.53 5.81C62.52 5.81 61.80 6.20 61.40 6.79L61.35 5.98ZM67.79 11.24C67.79 13.24 68.54 14.35 70.22 14.35C71.19 14.35 71.93 14.03 72.34 13.36L72.41 14.18L73.02 14.18L73.02 3.37L72.34 3.37L72.34 6.78C71.97 6.19 71.23 5.81 70.32 5.81C68.91 5.81 67.79 6.59 67.79 8.88ZM68.49 8.93C68.49 7.07 69.26 6.44 70.42 6.44C71.48 6.44 72.32 6.99 72.32 8.60L72.32 11.79C72.32 13.05 71.53 13.73 70.38 13.73C69.05 13.73 68.49 12.89 68.49 11.27ZM77.39 9.56C76.27 9.34 75.64 9.09 75.64 7.91C75.64 6.99 76.16 6.41 77.43 6.41C78.74 6.41 79.20 6.96 79.24 7.99L79.90 7.99C79.90 6.61 79.16 5.81 77.43 5.81C75.74 5.81 74.98 6.69 74.98 7.94C74.98 9.55 75.92 9.93 77.18 10.16C78.41 10.40 79.32 10.65 79.32 12.00C79.32 13.17 78.65 13.75 77.38 13.75C75.94 13.75 75.42 13.09 75.42 12.01L74.76 12.01C74.76 13.62 75.64 14.35 77.38 14.35C79.17 14.35 80.00 13.44 80.00 11.96C80.00 10.16 78.71 9.83 77.39 9.56Z"></path></g><defs data-v-fde0c5aa=""><linearGradient data-v-fde0c5aa="" gradientTransform="rotate(25)" id="fde5bd86-e774-4150-ab14-be612f2ba5c7" x1="0%" y1="0%" x2="100%" y2="0%"><stop data-v-fde0c5aa="" offset="0%" stop-color="#8D2CE3" stop-opacity="1"></stop><stop data-v-fde0c5aa="" offset="100%" stop-color="#F7C6F6" stop-opacity="1"></stop></linearGradient></defs><g data-v-fde0c5aa="" id="25a933d1-98aa-4b47-9f5b-f912a1e5cb1b" stroke="none" fill="url(#fde5bd86-e774-4150-ab14-be612f2ba5c7)" transform="matrix(2.2622670450747555,0,0,2.2622670450747555,113.8037272788039,86.70559091820587)"><path d="M0 16.024L15.976 32 32 15.976 16.024 0 0 16.024zm15.989 7.323l-7.336-7.336 14.694-.022-7.358 7.358z"></path></g><!----></svg>