<svg width="25" height="24" viewBox="0 0 25 24" fill="none" xmlns="http://www.w3.org/2000/svg">
<path d="M9.75 12H15.75H9.75ZM9.75 16H15.75H9.75ZM17.75 21H7.75C7.21957 21 6.71086 20.7893 6.33579 20.4142C5.96071 20.0391 5.75 19.5304 5.75 19V5C5.75 4.46957 5.96071 3.96086 6.33579 3.58579C6.71086 3.21071 7.21957 3 7.75 3H13.336C13.6012 3.00006 13.8555 3.10545 14.043 3.293L19.457 8.707C19.6446 8.89449 19.7499 9.1488 19.75 9.414V19C19.75 19.5304 19.5393 20.0391 19.1642 20.4142C18.7891 20.7893 18.2804 21 17.75 21Z" stroke="#A4A4A4" stroke-width="1.5" stroke-linecap="round" stroke-linejoin="round"/>
</svg>
